<mxfile host="Electron" agent="Mozilla/5.0 (Macintosh; Intel Mac OS X 10_15_7) AppleWebKit/537.36 (KHTML, like Gecko) draw.io/24.7.8 Chrome/128.0.6613.36 Electron/32.0.1 Safari/537.36" version="24.7.8">
  <diagram name="Страница — 1" id="tiSJ7aqS2W8AbXXHZDEc">
    <mxGraphModel dx="794" dy="627" grid="1" gridSize="10" guides="1" tooltips="1" connect="1" arrows="1" fold="1" page="1" pageScale="1" pageWidth="1169" pageHeight="827" math="0" shadow="0">
      <root>
        <mxCell id="0" />
        <mxCell id="1" parent="0" />
        <mxCell id="ZMHnVpzp3NXnP7j6b-J3-115" value="" style="rounded=0;whiteSpace=wrap;html=1;fillColor=none;strokeColor=#FF0000;" vertex="1" parent="1">
          <mxGeometry x="260" y="440" width="40" height="120" as="geometry" />
        </mxCell>
        <mxCell id="ZMHnVpzp3NXnP7j6b-J3-1" value="" style="endArrow=classic;html=1;rounded=0;" edge="1" parent="1" source="ZMHnVpzp3NXnP7j6b-J3-14">
          <mxGeometry width="50" height="50" relative="1" as="geometry">
            <mxPoint x="40" y="80" as="sourcePoint" />
            <mxPoint x="480" y="80" as="targetPoint" />
          </mxGeometry>
        </mxCell>
        <mxCell id="ZMHnVpzp3NXnP7j6b-J3-3" value="&lt;p&gt;&lt;b style=&quot;&quot;&gt;&lt;font style=&quot;font-size: 14px;&quot;&gt;Fast-forward с&lt;/font&gt;&lt;span style=&quot;font-size: 13px;&quot;&gt;остояние&lt;/span&gt;&lt;/b&gt;&lt;/p&gt;" style="text;html=1;align=left;verticalAlign=middle;whiteSpace=wrap;rounded=0;" vertex="1" parent="1">
          <mxGeometry x="40" y="10" width="160" height="30" as="geometry" />
        </mxCell>
        <mxCell id="ZMHnVpzp3NXnP7j6b-J3-5" value="main" style="text;html=1;align=center;verticalAlign=middle;whiteSpace=wrap;rounded=0;" vertex="1" parent="1">
          <mxGeometry x="40" y="50" width="60" height="30" as="geometry" />
        </mxCell>
        <mxCell id="ZMHnVpzp3NXnP7j6b-J3-11" value="" style="endArrow=none;html=1;rounded=0;endFill=0;" edge="1" parent="1" target="ZMHnVpzp3NXnP7j6b-J3-9">
          <mxGeometry width="50" height="50" relative="1" as="geometry">
            <mxPoint x="40" y="80" as="sourcePoint" />
            <mxPoint x="480" y="80" as="targetPoint" />
          </mxGeometry>
        </mxCell>
        <mxCell id="ZMHnVpzp3NXnP7j6b-J3-9" value="" style="ellipse;whiteSpace=wrap;html=1;aspect=fixed;fillColor=#d5e8d4;strokeColor=#82b366;" vertex="1" parent="1">
          <mxGeometry x="110" y="70" width="20" height="20" as="geometry" />
        </mxCell>
        <mxCell id="ZMHnVpzp3NXnP7j6b-J3-13" value="" style="endArrow=none;html=1;rounded=0;endFill=0;" edge="1" parent="1" source="ZMHnVpzp3NXnP7j6b-J3-9" target="ZMHnVpzp3NXnP7j6b-J3-12">
          <mxGeometry width="50" height="50" relative="1" as="geometry">
            <mxPoint x="130" y="80" as="sourcePoint" />
            <mxPoint x="480" y="80" as="targetPoint" />
          </mxGeometry>
        </mxCell>
        <mxCell id="ZMHnVpzp3NXnP7j6b-J3-12" value="" style="ellipse;whiteSpace=wrap;html=1;aspect=fixed;fillColor=#d5e8d4;strokeColor=#82b366;" vertex="1" parent="1">
          <mxGeometry x="150" y="70" width="20" height="20" as="geometry" />
        </mxCell>
        <mxCell id="ZMHnVpzp3NXnP7j6b-J3-15" value="" style="endArrow=none;html=1;rounded=0;endFill=0;" edge="1" parent="1" source="ZMHnVpzp3NXnP7j6b-J3-12" target="ZMHnVpzp3NXnP7j6b-J3-14">
          <mxGeometry width="50" height="50" relative="1" as="geometry">
            <mxPoint x="170" y="80" as="sourcePoint" />
            <mxPoint x="480" y="80" as="targetPoint" />
          </mxGeometry>
        </mxCell>
        <mxCell id="ZMHnVpzp3NXnP7j6b-J3-19" style="edgeStyle=orthogonalEdgeStyle;rounded=0;orthogonalLoop=1;jettySize=auto;html=1;exitX=0.5;exitY=1;exitDx=0;exitDy=0;" edge="1" parent="1" source="ZMHnVpzp3NXnP7j6b-J3-14">
          <mxGeometry relative="1" as="geometry">
            <mxPoint x="480" y="120" as="targetPoint" />
            <Array as="points">
              <mxPoint x="200" y="120" />
            </Array>
          </mxGeometry>
        </mxCell>
        <mxCell id="ZMHnVpzp3NXnP7j6b-J3-14" value="" style="ellipse;whiteSpace=wrap;html=1;aspect=fixed;fillColor=#d5e8d4;strokeColor=#82b366;" vertex="1" parent="1">
          <mxGeometry x="190" y="70" width="20" height="20" as="geometry" />
        </mxCell>
        <mxCell id="ZMHnVpzp3NXnP7j6b-J3-16" value="C1" style="text;html=1;align=center;verticalAlign=middle;whiteSpace=wrap;rounded=0;" vertex="1" parent="1">
          <mxGeometry x="90" y="40" width="60" height="30" as="geometry" />
        </mxCell>
        <mxCell id="ZMHnVpzp3NXnP7j6b-J3-17" value="C2" style="text;html=1;align=center;verticalAlign=middle;whiteSpace=wrap;rounded=0;" vertex="1" parent="1">
          <mxGeometry x="130" y="40" width="60" height="30" as="geometry" />
        </mxCell>
        <mxCell id="ZMHnVpzp3NXnP7j6b-J3-18" value="C3" style="text;html=1;align=center;verticalAlign=middle;whiteSpace=wrap;rounded=0;" vertex="1" parent="1">
          <mxGeometry x="170" y="40" width="60" height="30" as="geometry" />
        </mxCell>
        <mxCell id="ZMHnVpzp3NXnP7j6b-J3-22" value="" style="ellipse;whiteSpace=wrap;html=1;aspect=fixed;fillColor=#ffe6cc;strokeColor=#d79b00;" vertex="1" parent="1">
          <mxGeometry x="270" y="110" width="20" height="20" as="geometry" />
        </mxCell>
        <mxCell id="ZMHnVpzp3NXnP7j6b-J3-28" value="" style="ellipse;whiteSpace=wrap;html=1;aspect=fixed;fillColor=#ffe6cc;strokeColor=#d79b00;" vertex="1" parent="1">
          <mxGeometry x="310" y="110" width="20" height="20" as="geometry" />
        </mxCell>
        <mxCell id="ZMHnVpzp3NXnP7j6b-J3-30" value="N1" style="text;html=1;align=center;verticalAlign=middle;whiteSpace=wrap;rounded=0;" vertex="1" parent="1">
          <mxGeometry x="250" y="130" width="60" height="30" as="geometry" />
        </mxCell>
        <mxCell id="ZMHnVpzp3NXnP7j6b-J3-31" value="N2" style="text;html=1;align=center;verticalAlign=middle;whiteSpace=wrap;rounded=0;" vertex="1" parent="1">
          <mxGeometry x="290" y="130" width="60" height="30" as="geometry" />
        </mxCell>
        <mxCell id="ZMHnVpzp3NXnP7j6b-J3-32" value="add-docs" style="text;html=1;align=center;verticalAlign=middle;whiteSpace=wrap;rounded=0;" vertex="1" parent="1">
          <mxGeometry x="200" y="120" width="60" height="30" as="geometry" />
        </mxCell>
        <mxCell id="ZMHnVpzp3NXnP7j6b-J3-47" value="" style="endArrow=classic;html=1;rounded=0;" edge="1" parent="1" source="ZMHnVpzp3NXnP7j6b-J3-57">
          <mxGeometry width="50" height="50" relative="1" as="geometry">
            <mxPoint x="40" y="200" as="sourcePoint" />
            <mxPoint x="480" y="200" as="targetPoint" />
          </mxGeometry>
        </mxCell>
        <mxCell id="ZMHnVpzp3NXnP7j6b-J3-48" value="main" style="text;html=1;align=center;verticalAlign=middle;whiteSpace=wrap;rounded=0;" vertex="1" parent="1">
          <mxGeometry x="40" y="170" width="60" height="30" as="geometry" />
        </mxCell>
        <mxCell id="ZMHnVpzp3NXnP7j6b-J3-49" value="" style="endArrow=none;html=1;rounded=0;endFill=0;" edge="1" parent="1" target="ZMHnVpzp3NXnP7j6b-J3-50">
          <mxGeometry width="50" height="50" relative="1" as="geometry">
            <mxPoint x="40" y="200" as="sourcePoint" />
            <mxPoint x="480" y="200" as="targetPoint" />
          </mxGeometry>
        </mxCell>
        <mxCell id="ZMHnVpzp3NXnP7j6b-J3-50" value="" style="ellipse;whiteSpace=wrap;html=1;aspect=fixed;fillColor=#d5e8d4;strokeColor=#82b366;" vertex="1" parent="1">
          <mxGeometry x="110" y="190" width="20" height="20" as="geometry" />
        </mxCell>
        <mxCell id="ZMHnVpzp3NXnP7j6b-J3-51" value="" style="endArrow=none;html=1;rounded=0;endFill=0;" edge="1" parent="1" source="ZMHnVpzp3NXnP7j6b-J3-50" target="ZMHnVpzp3NXnP7j6b-J3-52">
          <mxGeometry width="50" height="50" relative="1" as="geometry">
            <mxPoint x="130" y="200" as="sourcePoint" />
            <mxPoint x="480" y="200" as="targetPoint" />
          </mxGeometry>
        </mxCell>
        <mxCell id="ZMHnVpzp3NXnP7j6b-J3-52" value="" style="ellipse;whiteSpace=wrap;html=1;aspect=fixed;fillColor=#d5e8d4;strokeColor=#82b366;" vertex="1" parent="1">
          <mxGeometry x="150" y="190" width="20" height="20" as="geometry" />
        </mxCell>
        <mxCell id="ZMHnVpzp3NXnP7j6b-J3-53" value="" style="endArrow=none;html=1;rounded=0;endFill=0;" edge="1" parent="1" source="ZMHnVpzp3NXnP7j6b-J3-52" target="ZMHnVpzp3NXnP7j6b-J3-55">
          <mxGeometry width="50" height="50" relative="1" as="geometry">
            <mxPoint x="170" y="200" as="sourcePoint" />
            <mxPoint x="480" y="200" as="targetPoint" />
          </mxGeometry>
        </mxCell>
        <mxCell id="ZMHnVpzp3NXnP7j6b-J3-55" value="" style="ellipse;whiteSpace=wrap;html=1;aspect=fixed;fillColor=#d5e8d4;strokeColor=#82b366;" vertex="1" parent="1">
          <mxGeometry x="190" y="190" width="20" height="20" as="geometry" />
        </mxCell>
        <mxCell id="ZMHnVpzp3NXnP7j6b-J3-58" value="N1" style="text;html=1;align=center;verticalAlign=middle;whiteSpace=wrap;rounded=0;" vertex="1" parent="1">
          <mxGeometry x="250" y="210" width="60" height="30" as="geometry" />
        </mxCell>
        <mxCell id="ZMHnVpzp3NXnP7j6b-J3-59" value="N2" style="text;html=1;align=center;verticalAlign=middle;whiteSpace=wrap;rounded=0;" vertex="1" parent="1">
          <mxGeometry x="290" y="210" width="60" height="30" as="geometry" />
        </mxCell>
        <mxCell id="ZMHnVpzp3NXnP7j6b-J3-61" value="" style="endArrow=none;html=1;rounded=0;endFill=0;" edge="1" parent="1" source="ZMHnVpzp3NXnP7j6b-J3-55" target="ZMHnVpzp3NXnP7j6b-J3-56">
          <mxGeometry width="50" height="50" relative="1" as="geometry">
            <mxPoint x="210" y="200" as="sourcePoint" />
            <mxPoint x="480" y="200" as="targetPoint" />
          </mxGeometry>
        </mxCell>
        <mxCell id="ZMHnVpzp3NXnP7j6b-J3-56" value="" style="ellipse;whiteSpace=wrap;html=1;aspect=fixed;fillColor=#ffe6cc;strokeColor=#d79b00;" vertex="1" parent="1">
          <mxGeometry x="270" y="190" width="20" height="20" as="geometry" />
        </mxCell>
        <mxCell id="ZMHnVpzp3NXnP7j6b-J3-62" value="" style="endArrow=none;html=1;rounded=0;endFill=0;" edge="1" parent="1" source="ZMHnVpzp3NXnP7j6b-J3-56" target="ZMHnVpzp3NXnP7j6b-J3-57">
          <mxGeometry width="50" height="50" relative="1" as="geometry">
            <mxPoint x="290" y="200" as="sourcePoint" />
            <mxPoint x="480" y="200" as="targetPoint" />
          </mxGeometry>
        </mxCell>
        <mxCell id="ZMHnVpzp3NXnP7j6b-J3-57" value="" style="ellipse;whiteSpace=wrap;html=1;aspect=fixed;fillColor=#ffe6cc;strokeColor=#d79b00;" vertex="1" parent="1">
          <mxGeometry x="310" y="190" width="20" height="20" as="geometry" />
        </mxCell>
        <mxCell id="ZMHnVpzp3NXnP7j6b-J3-63" value="main = add-docs" style="text;html=1;align=center;verticalAlign=middle;whiteSpace=wrap;rounded=0;" vertex="1" parent="1">
          <mxGeometry x="380" y="170" width="100" height="30" as="geometry" />
        </mxCell>
        <mxCell id="ZMHnVpzp3NXnP7j6b-J3-64" value="C3" style="text;html=1;align=center;verticalAlign=middle;whiteSpace=wrap;rounded=0;" vertex="1" parent="1">
          <mxGeometry x="170" y="160" width="60" height="30" as="geometry" />
        </mxCell>
        <mxCell id="ZMHnVpzp3NXnP7j6b-J3-65" value="C2" style="text;html=1;align=center;verticalAlign=middle;whiteSpace=wrap;rounded=0;" vertex="1" parent="1">
          <mxGeometry x="130" y="160" width="60" height="30" as="geometry" />
        </mxCell>
        <mxCell id="ZMHnVpzp3NXnP7j6b-J3-66" value="C1" style="text;html=1;align=center;verticalAlign=middle;whiteSpace=wrap;rounded=0;" vertex="1" parent="1">
          <mxGeometry x="90" y="160" width="60" height="30" as="geometry" />
        </mxCell>
        <mxCell id="ZMHnVpzp3NXnP7j6b-J3-67" value="&lt;p&gt;&lt;b&gt;С ключом --no-ff&lt;/b&gt;&lt;/p&gt;" style="text;html=1;align=left;verticalAlign=middle;whiteSpace=wrap;rounded=0;" vertex="1" parent="1">
          <mxGeometry x="40" y="250" width="160" height="30" as="geometry" />
        </mxCell>
        <mxCell id="ZMHnVpzp3NXnP7j6b-J3-68" value="" style="endArrow=classic;html=1;rounded=0;" edge="1" parent="1" source="ZMHnVpzp3NXnP7j6b-J3-87">
          <mxGeometry width="50" height="50" relative="1" as="geometry">
            <mxPoint x="40" y="320" as="sourcePoint" />
            <mxPoint x="480" y="320" as="targetPoint" />
          </mxGeometry>
        </mxCell>
        <mxCell id="ZMHnVpzp3NXnP7j6b-J3-69" value="main" style="text;html=1;align=center;verticalAlign=middle;whiteSpace=wrap;rounded=0;" vertex="1" parent="1">
          <mxGeometry x="40" y="290" width="60" height="30" as="geometry" />
        </mxCell>
        <mxCell id="ZMHnVpzp3NXnP7j6b-J3-70" value="" style="endArrow=none;html=1;rounded=0;endFill=0;" edge="1" parent="1" target="ZMHnVpzp3NXnP7j6b-J3-71">
          <mxGeometry width="50" height="50" relative="1" as="geometry">
            <mxPoint x="40" y="320" as="sourcePoint" />
            <mxPoint x="480" y="320" as="targetPoint" />
          </mxGeometry>
        </mxCell>
        <mxCell id="ZMHnVpzp3NXnP7j6b-J3-71" value="" style="ellipse;whiteSpace=wrap;html=1;aspect=fixed;fillColor=#d5e8d4;strokeColor=#82b366;" vertex="1" parent="1">
          <mxGeometry x="110" y="310" width="20" height="20" as="geometry" />
        </mxCell>
        <mxCell id="ZMHnVpzp3NXnP7j6b-J3-72" value="" style="endArrow=none;html=1;rounded=0;endFill=0;" edge="1" parent="1" source="ZMHnVpzp3NXnP7j6b-J3-71" target="ZMHnVpzp3NXnP7j6b-J3-73">
          <mxGeometry width="50" height="50" relative="1" as="geometry">
            <mxPoint x="130" y="320" as="sourcePoint" />
            <mxPoint x="480" y="320" as="targetPoint" />
          </mxGeometry>
        </mxCell>
        <mxCell id="ZMHnVpzp3NXnP7j6b-J3-73" value="" style="ellipse;whiteSpace=wrap;html=1;aspect=fixed;fillColor=#d5e8d4;strokeColor=#82b366;" vertex="1" parent="1">
          <mxGeometry x="150" y="310" width="20" height="20" as="geometry" />
        </mxCell>
        <mxCell id="ZMHnVpzp3NXnP7j6b-J3-74" value="" style="endArrow=none;html=1;rounded=0;endFill=0;" edge="1" parent="1" source="ZMHnVpzp3NXnP7j6b-J3-73" target="ZMHnVpzp3NXnP7j6b-J3-76">
          <mxGeometry width="50" height="50" relative="1" as="geometry">
            <mxPoint x="170" y="320" as="sourcePoint" />
            <mxPoint x="480" y="320" as="targetPoint" />
          </mxGeometry>
        </mxCell>
        <mxCell id="ZMHnVpzp3NXnP7j6b-J3-75" style="edgeStyle=orthogonalEdgeStyle;rounded=0;orthogonalLoop=1;jettySize=auto;html=1;exitX=0.5;exitY=1;exitDx=0;exitDy=0;entryX=0.5;entryY=1;entryDx=0;entryDy=0;" edge="1" parent="1" source="ZMHnVpzp3NXnP7j6b-J3-76" target="ZMHnVpzp3NXnP7j6b-J3-87">
          <mxGeometry relative="1" as="geometry">
            <mxPoint x="470" y="360" as="targetPoint" />
            <Array as="points">
              <mxPoint x="200" y="360" />
              <mxPoint x="400" y="360" />
            </Array>
          </mxGeometry>
        </mxCell>
        <mxCell id="ZMHnVpzp3NXnP7j6b-J3-76" value="" style="ellipse;whiteSpace=wrap;html=1;aspect=fixed;fillColor=#d5e8d4;strokeColor=#82b366;" vertex="1" parent="1">
          <mxGeometry x="190" y="310" width="20" height="20" as="geometry" />
        </mxCell>
        <mxCell id="ZMHnVpzp3NXnP7j6b-J3-77" value="C1" style="text;html=1;align=center;verticalAlign=middle;whiteSpace=wrap;rounded=0;" vertex="1" parent="1">
          <mxGeometry x="90" y="280" width="60" height="30" as="geometry" />
        </mxCell>
        <mxCell id="ZMHnVpzp3NXnP7j6b-J3-78" value="C2" style="text;html=1;align=center;verticalAlign=middle;whiteSpace=wrap;rounded=0;" vertex="1" parent="1">
          <mxGeometry x="130" y="280" width="60" height="30" as="geometry" />
        </mxCell>
        <mxCell id="ZMHnVpzp3NXnP7j6b-J3-79" value="C3" style="text;html=1;align=center;verticalAlign=middle;whiteSpace=wrap;rounded=0;" vertex="1" parent="1">
          <mxGeometry x="170" y="280" width="60" height="30" as="geometry" />
        </mxCell>
        <mxCell id="ZMHnVpzp3NXnP7j6b-J3-80" value="" style="ellipse;whiteSpace=wrap;html=1;aspect=fixed;fillColor=#ffe6cc;strokeColor=#d79b00;" vertex="1" parent="1">
          <mxGeometry x="270" y="350" width="20" height="20" as="geometry" />
        </mxCell>
        <mxCell id="ZMHnVpzp3NXnP7j6b-J3-81" value="" style="ellipse;whiteSpace=wrap;html=1;aspect=fixed;fillColor=#ffe6cc;strokeColor=#d79b00;" vertex="1" parent="1">
          <mxGeometry x="310" y="350" width="20" height="20" as="geometry" />
        </mxCell>
        <mxCell id="ZMHnVpzp3NXnP7j6b-J3-82" value="add-docs" style="text;html=1;align=center;verticalAlign=middle;whiteSpace=wrap;rounded=0;" vertex="1" parent="1">
          <mxGeometry x="200" y="360" width="60" height="30" as="geometry" />
        </mxCell>
        <mxCell id="ZMHnVpzp3NXnP7j6b-J3-83" value="N1" style="text;html=1;align=center;verticalAlign=middle;whiteSpace=wrap;rounded=0;" vertex="1" parent="1">
          <mxGeometry x="250" y="370" width="60" height="30" as="geometry" />
        </mxCell>
        <mxCell id="ZMHnVpzp3NXnP7j6b-J3-84" value="N2" style="text;html=1;align=center;verticalAlign=middle;whiteSpace=wrap;rounded=0;" vertex="1" parent="1">
          <mxGeometry x="290" y="370" width="60" height="30" as="geometry" />
        </mxCell>
        <mxCell id="ZMHnVpzp3NXnP7j6b-J3-88" value="" style="endArrow=none;html=1;rounded=0;endFill=0;" edge="1" parent="1" source="ZMHnVpzp3NXnP7j6b-J3-76" target="ZMHnVpzp3NXnP7j6b-J3-87">
          <mxGeometry width="50" height="50" relative="1" as="geometry">
            <mxPoint x="210" y="320" as="sourcePoint" />
            <mxPoint x="480" y="320" as="targetPoint" />
          </mxGeometry>
        </mxCell>
        <mxCell id="ZMHnVpzp3NXnP7j6b-J3-87" value="" style="ellipse;whiteSpace=wrap;html=1;aspect=fixed;fillColor=#d5e8d4;strokeColor=#82b366;gradientColor=#FFCE9F;gradientDirection=east;" vertex="1" parent="1">
          <mxGeometry x="390" y="310" width="20" height="20" as="geometry" />
        </mxCell>
        <mxCell id="ZMHnVpzp3NXnP7j6b-J3-89" value="merge-коммит" style="text;html=1;align=center;verticalAlign=middle;whiteSpace=wrap;rounded=0;" vertex="1" parent="1">
          <mxGeometry x="355" y="280" width="90" height="30" as="geometry" />
        </mxCell>
        <mxCell id="ZMHnVpzp3NXnP7j6b-J3-92" value="&lt;p&gt;&lt;span style=&quot;font-size: 14px;&quot;&gt;&lt;b&gt;Состояние non-fast-forward&lt;/b&gt;&lt;/span&gt;&lt;/p&gt;" style="text;html=1;align=left;verticalAlign=middle;whiteSpace=wrap;rounded=0;" vertex="1" parent="1">
          <mxGeometry x="40" y="410" width="210" height="30" as="geometry" />
        </mxCell>
        <mxCell id="ZMHnVpzp3NXnP7j6b-J3-93" value="" style="endArrow=classic;html=1;rounded=0;" edge="1" parent="1" source="ZMHnVpzp3NXnP7j6b-J3-108">
          <mxGeometry width="50" height="50" relative="1" as="geometry">
            <mxPoint x="40" y="480" as="sourcePoint" />
            <mxPoint x="480" y="480" as="targetPoint" />
          </mxGeometry>
        </mxCell>
        <mxCell id="ZMHnVpzp3NXnP7j6b-J3-94" value="main" style="text;html=1;align=center;verticalAlign=middle;whiteSpace=wrap;rounded=0;" vertex="1" parent="1">
          <mxGeometry x="40" y="450" width="60" height="30" as="geometry" />
        </mxCell>
        <mxCell id="ZMHnVpzp3NXnP7j6b-J3-95" value="" style="endArrow=none;html=1;rounded=0;endFill=0;" edge="1" parent="1" target="ZMHnVpzp3NXnP7j6b-J3-96">
          <mxGeometry width="50" height="50" relative="1" as="geometry">
            <mxPoint x="40" y="480" as="sourcePoint" />
            <mxPoint x="480" y="480" as="targetPoint" />
          </mxGeometry>
        </mxCell>
        <mxCell id="ZMHnVpzp3NXnP7j6b-J3-96" value="" style="ellipse;whiteSpace=wrap;html=1;aspect=fixed;fillColor=#d5e8d4;strokeColor=#82b366;" vertex="1" parent="1">
          <mxGeometry x="110" y="470" width="20" height="20" as="geometry" />
        </mxCell>
        <mxCell id="ZMHnVpzp3NXnP7j6b-J3-97" value="" style="endArrow=none;html=1;rounded=0;endFill=0;" edge="1" parent="1" source="ZMHnVpzp3NXnP7j6b-J3-96" target="ZMHnVpzp3NXnP7j6b-J3-98">
          <mxGeometry width="50" height="50" relative="1" as="geometry">
            <mxPoint x="130" y="480" as="sourcePoint" />
            <mxPoint x="480" y="480" as="targetPoint" />
          </mxGeometry>
        </mxCell>
        <mxCell id="ZMHnVpzp3NXnP7j6b-J3-98" value="" style="ellipse;whiteSpace=wrap;html=1;aspect=fixed;fillColor=#d5e8d4;strokeColor=#82b366;" vertex="1" parent="1">
          <mxGeometry x="150" y="470" width="20" height="20" as="geometry" />
        </mxCell>
        <mxCell id="ZMHnVpzp3NXnP7j6b-J3-99" value="" style="endArrow=none;html=1;rounded=0;endFill=0;" edge="1" parent="1" source="ZMHnVpzp3NXnP7j6b-J3-98" target="ZMHnVpzp3NXnP7j6b-J3-101">
          <mxGeometry width="50" height="50" relative="1" as="geometry">
            <mxPoint x="170" y="480" as="sourcePoint" />
            <mxPoint x="480" y="480" as="targetPoint" />
          </mxGeometry>
        </mxCell>
        <mxCell id="ZMHnVpzp3NXnP7j6b-J3-100" style="edgeStyle=orthogonalEdgeStyle;rounded=0;orthogonalLoop=1;jettySize=auto;html=1;exitX=0.5;exitY=1;exitDx=0;exitDy=0;" edge="1" parent="1" source="ZMHnVpzp3NXnP7j6b-J3-101">
          <mxGeometry relative="1" as="geometry">
            <mxPoint x="480" y="520" as="targetPoint" />
            <Array as="points">
              <mxPoint x="200" y="520" />
            </Array>
          </mxGeometry>
        </mxCell>
        <mxCell id="ZMHnVpzp3NXnP7j6b-J3-101" value="" style="ellipse;whiteSpace=wrap;html=1;aspect=fixed;fillColor=#d5e8d4;strokeColor=#82b366;" vertex="1" parent="1">
          <mxGeometry x="190" y="470" width="20" height="20" as="geometry" />
        </mxCell>
        <mxCell id="ZMHnVpzp3NXnP7j6b-J3-102" value="C1" style="text;html=1;align=center;verticalAlign=middle;whiteSpace=wrap;rounded=0;" vertex="1" parent="1">
          <mxGeometry x="90" y="440" width="60" height="30" as="geometry" />
        </mxCell>
        <mxCell id="ZMHnVpzp3NXnP7j6b-J3-103" value="C2" style="text;html=1;align=center;verticalAlign=middle;whiteSpace=wrap;rounded=0;" vertex="1" parent="1">
          <mxGeometry x="130" y="440" width="60" height="30" as="geometry" />
        </mxCell>
        <mxCell id="ZMHnVpzp3NXnP7j6b-J3-104" value="C3" style="text;html=1;align=center;verticalAlign=middle;whiteSpace=wrap;rounded=0;" vertex="1" parent="1">
          <mxGeometry x="170" y="440" width="60" height="30" as="geometry" />
        </mxCell>
        <mxCell id="ZMHnVpzp3NXnP7j6b-J3-105" value="" style="ellipse;whiteSpace=wrap;html=1;aspect=fixed;fillColor=#ffe6cc;strokeColor=#d79b00;" vertex="1" parent="1">
          <mxGeometry x="270" y="510" width="20" height="20" as="geometry" />
        </mxCell>
        <mxCell id="ZMHnVpzp3NXnP7j6b-J3-106" value="" style="ellipse;whiteSpace=wrap;html=1;aspect=fixed;fillColor=#ffe6cc;strokeColor=#d79b00;" vertex="1" parent="1">
          <mxGeometry x="310" y="510" width="20" height="20" as="geometry" />
        </mxCell>
        <mxCell id="ZMHnVpzp3NXnP7j6b-J3-107" value="add-docs" style="text;html=1;align=center;verticalAlign=middle;whiteSpace=wrap;rounded=0;" vertex="1" parent="1">
          <mxGeometry x="200" y="520" width="60" height="30" as="geometry" />
        </mxCell>
        <mxCell id="ZMHnVpzp3NXnP7j6b-J3-109" value="" style="endArrow=none;html=1;rounded=0;endFill=0;" edge="1" parent="1" source="ZMHnVpzp3NXnP7j6b-J3-101" target="ZMHnVpzp3NXnP7j6b-J3-108">
          <mxGeometry width="50" height="50" relative="1" as="geometry">
            <mxPoint x="210" y="480" as="sourcePoint" />
            <mxPoint x="480" y="480" as="targetPoint" />
          </mxGeometry>
        </mxCell>
        <mxCell id="ZMHnVpzp3NXnP7j6b-J3-108" value="" style="ellipse;whiteSpace=wrap;html=1;aspect=fixed;fillColor=#d5e8d4;strokeColor=#82b366;" vertex="1" parent="1">
          <mxGeometry x="270" y="470" width="20" height="20" as="geometry" />
        </mxCell>
        <mxCell id="ZMHnVpzp3NXnP7j6b-J3-110" value="D" style="text;html=1;align=center;verticalAlign=middle;whiteSpace=wrap;rounded=0;" vertex="1" parent="1">
          <mxGeometry x="250" y="440" width="60" height="30" as="geometry" />
        </mxCell>
        <mxCell id="ZMHnVpzp3NXnP7j6b-J3-113" value="N1" style="text;html=1;align=center;verticalAlign=middle;whiteSpace=wrap;rounded=0;" vertex="1" parent="1">
          <mxGeometry x="250" y="530" width="60" height="30" as="geometry" />
        </mxCell>
        <mxCell id="ZMHnVpzp3NXnP7j6b-J3-114" value="N2" style="text;html=1;align=center;verticalAlign=middle;whiteSpace=wrap;rounded=0;" vertex="1" parent="1">
          <mxGeometry x="290" y="530" width="60" height="30" as="geometry" />
        </mxCell>
        <mxCell id="ZMHnVpzp3NXnP7j6b-J3-117" value="&lt;font color=&quot;#ff0000&quot;&gt;между этими коммитами&lt;/font&gt;&lt;div&gt;&lt;font color=&quot;#ff0000&quot;&gt;может быть конфликт&lt;/font&gt;&lt;/div&gt;" style="text;html=1;align=left;verticalAlign=middle;whiteSpace=wrap;rounded=0;" vertex="1" parent="1">
          <mxGeometry x="320" y="410" width="160" height="30" as="geometry" />
        </mxCell>
        <mxCell id="ZMHnVpzp3NXnP7j6b-J3-118" value="" style="endArrow=classic;html=1;rounded=0;exitX=0;exitY=0.5;exitDx=0;exitDy=0;entryX=0.5;entryY=0;entryDx=0;entryDy=0;edgeStyle=orthogonalEdgeStyle;strokeColor=#FF0000;" edge="1" parent="1" source="ZMHnVpzp3NXnP7j6b-J3-117" target="ZMHnVpzp3NXnP7j6b-J3-110">
          <mxGeometry width="50" height="50" relative="1" as="geometry">
            <mxPoint x="280" y="500" as="sourcePoint" />
            <mxPoint x="330" y="450" as="targetPoint" />
          </mxGeometry>
        </mxCell>
        <mxCell id="ZMHnVpzp3NXnP7j6b-J3-119" value="&lt;p&gt;&lt;span style=&quot;font-size: 14px;&quot;&gt;&lt;b&gt;Форсированны пуш&lt;/b&gt;&lt;/span&gt;&lt;/p&gt;" style="text;html=1;align=left;verticalAlign=middle;whiteSpace=wrap;rounded=0;" vertex="1" parent="1">
          <mxGeometry x="40" y="570" width="210" height="30" as="geometry" />
        </mxCell>
        <mxCell id="ZMHnVpzp3NXnP7j6b-J3-121" value="" style="endArrow=classic;html=1;rounded=0;" edge="1" parent="1" source="ZMHnVpzp3NXnP7j6b-J3-134">
          <mxGeometry width="50" height="50" relative="1" as="geometry">
            <mxPoint x="290" y="680" as="sourcePoint" />
            <mxPoint x="480" y="680" as="targetPoint" />
          </mxGeometry>
        </mxCell>
        <mxCell id="ZMHnVpzp3NXnP7j6b-J3-122" value="main@origin" style="text;html=1;align=center;verticalAlign=middle;whiteSpace=wrap;rounded=0;" vertex="1" parent="1">
          <mxGeometry x="40" y="650" width="60" height="30" as="geometry" />
        </mxCell>
        <mxCell id="ZMHnVpzp3NXnP7j6b-J3-123" value="" style="endArrow=none;html=1;rounded=0;endFill=0;" edge="1" parent="1" target="ZMHnVpzp3NXnP7j6b-J3-124">
          <mxGeometry width="50" height="50" relative="1" as="geometry">
            <mxPoint x="40" y="680" as="sourcePoint" />
            <mxPoint x="480" y="680" as="targetPoint" />
          </mxGeometry>
        </mxCell>
        <mxCell id="ZMHnVpzp3NXnP7j6b-J3-124" value="" style="ellipse;whiteSpace=wrap;html=1;aspect=fixed;fillColor=#d5e8d4;strokeColor=#82b366;" vertex="1" parent="1">
          <mxGeometry x="110" y="670" width="20" height="20" as="geometry" />
        </mxCell>
        <mxCell id="ZMHnVpzp3NXnP7j6b-J3-125" value="" style="endArrow=none;html=1;rounded=0;endFill=0;" edge="1" parent="1" source="ZMHnVpzp3NXnP7j6b-J3-124" target="ZMHnVpzp3NXnP7j6b-J3-126">
          <mxGeometry width="50" height="50" relative="1" as="geometry">
            <mxPoint x="130" y="680" as="sourcePoint" />
            <mxPoint x="480" y="680" as="targetPoint" />
          </mxGeometry>
        </mxCell>
        <mxCell id="ZMHnVpzp3NXnP7j6b-J3-126" value="" style="ellipse;whiteSpace=wrap;html=1;aspect=fixed;fillColor=#d5e8d4;strokeColor=#82b366;" vertex="1" parent="1">
          <mxGeometry x="150" y="670" width="20" height="20" as="geometry" />
        </mxCell>
        <mxCell id="ZMHnVpzp3NXnP7j6b-J3-127" value="" style="endArrow=none;html=1;rounded=0;endFill=0;" edge="1" parent="1" source="ZMHnVpzp3NXnP7j6b-J3-126" target="ZMHnVpzp3NXnP7j6b-J3-129">
          <mxGeometry width="50" height="50" relative="1" as="geometry">
            <mxPoint x="170" y="680" as="sourcePoint" />
            <mxPoint x="480" y="680" as="targetPoint" />
          </mxGeometry>
        </mxCell>
        <mxCell id="ZMHnVpzp3NXnP7j6b-J3-129" value="" style="ellipse;whiteSpace=wrap;html=1;aspect=fixed;fillColor=#d5e8d4;strokeColor=#82b366;" vertex="1" parent="1">
          <mxGeometry x="190" y="670" width="20" height="20" as="geometry" />
        </mxCell>
        <mxCell id="ZMHnVpzp3NXnP7j6b-J3-130" value="C1" style="text;html=1;align=center;verticalAlign=middle;whiteSpace=wrap;rounded=0;" vertex="1" parent="1">
          <mxGeometry x="90" y="640" width="60" height="30" as="geometry" />
        </mxCell>
        <mxCell id="ZMHnVpzp3NXnP7j6b-J3-131" value="C2" style="text;html=1;align=center;verticalAlign=middle;whiteSpace=wrap;rounded=0;" vertex="1" parent="1">
          <mxGeometry x="130" y="640" width="60" height="30" as="geometry" />
        </mxCell>
        <mxCell id="ZMHnVpzp3NXnP7j6b-J3-132" value="C3" style="text;html=1;align=center;verticalAlign=middle;whiteSpace=wrap;rounded=0;" vertex="1" parent="1">
          <mxGeometry x="170" y="640" width="60" height="30" as="geometry" />
        </mxCell>
        <mxCell id="ZMHnVpzp3NXnP7j6b-J3-133" value="" style="ellipse;whiteSpace=wrap;html=1;aspect=fixed;fillColor=#ffe6cc;strokeColor=#d79b00;" vertex="1" parent="1">
          <mxGeometry x="270" y="670" width="20" height="20" as="geometry" />
        </mxCell>
        <mxCell id="ZMHnVpzp3NXnP7j6b-J3-136" value="" style="endArrow=none;html=1;rounded=0;endFill=0;" edge="1" parent="1" source="ZMHnVpzp3NXnP7j6b-J3-129">
          <mxGeometry width="50" height="50" relative="1" as="geometry">
            <mxPoint x="210" y="680" as="sourcePoint" />
            <mxPoint x="270" y="680" as="targetPoint" />
          </mxGeometry>
        </mxCell>
        <mxCell id="ZMHnVpzp3NXnP7j6b-J3-139" value="N1" style="text;html=1;align=center;verticalAlign=middle;whiteSpace=wrap;rounded=0;" vertex="1" parent="1">
          <mxGeometry x="250" y="690" width="60" height="30" as="geometry" />
        </mxCell>
        <mxCell id="ZMHnVpzp3NXnP7j6b-J3-140" value="N2" style="text;html=1;align=center;verticalAlign=middle;whiteSpace=wrap;rounded=0;" vertex="1" parent="1">
          <mxGeometry x="290" y="690" width="60" height="30" as="geometry" />
        </mxCell>
        <mxCell id="ZMHnVpzp3NXnP7j6b-J3-145" value="" style="endArrow=none;html=1;rounded=0;endFill=0;" edge="1" parent="1" target="ZMHnVpzp3NXnP7j6b-J3-134">
          <mxGeometry width="50" height="50" relative="1" as="geometry">
            <mxPoint x="290" y="680" as="sourcePoint" />
            <mxPoint x="480" y="680" as="targetPoint" />
          </mxGeometry>
        </mxCell>
        <mxCell id="ZMHnVpzp3NXnP7j6b-J3-134" value="" style="ellipse;whiteSpace=wrap;html=1;aspect=fixed;fillColor=#ffe6cc;strokeColor=#d79b00;" vertex="1" parent="1">
          <mxGeometry x="310" y="670" width="20" height="20" as="geometry" />
        </mxCell>
        <mxCell id="ZMHnVpzp3NXnP7j6b-J3-146" value="&lt;font color=&quot;#ff0000&quot;&gt;&quot;выкинет&quot; коммит D&lt;/font&gt;" style="text;html=1;align=center;verticalAlign=middle;whiteSpace=wrap;rounded=0;" vertex="1" parent="1">
          <mxGeometry x="230" y="600" width="100" height="30" as="geometry" />
        </mxCell>
        <mxCell id="ZMHnVpzp3NXnP7j6b-J3-147" value="&lt;b&gt;git push --force&lt;/b&gt;" style="text;html=1;align=center;verticalAlign=middle;whiteSpace=wrap;rounded=0;" vertex="1" parent="1">
          <mxGeometry x="380" y="600" width="100" height="30" as="geometry" />
        </mxCell>
      </root>
    </mxGraphModel>
  </diagram>
</mxfile>
